<mxfile host="65bd71144e" modified="2020-10-19T22:58:14.584Z" agent="5.0 (X11; Linux x86_64) AppleWebKit/537.36 (KHTML, like Gecko) Code/1.50.1 Chrome/83.0.4103.122 Electron/9.2.1 Safari/537.36" version="13.6.5" etag="o9fi5Ii0jC8fFOGTRqBb" pages="2">
    <diagram id="IbIOWpbKUW-4yFVKSy8a" name="Bounded contexts">
        <mxGraphModel dx="678" dy="860" grid="1" gridSize="10" guides="1" tooltips="1" connect="1" arrows="1" fold="1" page="1" pageScale="1" pageWidth="827" pageHeight="1169" math="0" shadow="0">
            <root>
                <mxCell id="0"/>
                <mxCell id="1" parent="0"/>
                <mxCell id="3" value="&lt;h1&gt;&lt;span&gt;Contextos&lt;/span&gt;&lt;/h1&gt;&lt;h1&gt;&lt;span style=&quot;font-size: 12px ; font-weight: 400&quot;&gt;Usuário:&lt;/span&gt;&lt;/h1&gt;&lt;blockquote style=&quot;margin: 0 0 0 40px ; border: none ; padding: 0px&quot;&gt;&lt;div&gt;&lt;span style=&quot;font-size: 12px ; font-weight: 400&quot;&gt;Inserir os gastos do condomínio&lt;/span&gt;&lt;/div&gt;&lt;div&gt;&lt;span style=&quot;font-size: 12px ; font-weight: 400&quot;&gt;Criar um plano de contas&lt;/span&gt;&lt;/div&gt;&lt;div&gt;&lt;span style=&quot;font-size: 12px ; font-weight: 400&quot;&gt;Inserir os recebimentos&lt;/span&gt;&lt;/div&gt;&lt;div&gt;&lt;span style=&quot;font-size: 12px ; font-weight: 400&quot;&gt;Ver quem pagou atrasado&lt;/span&gt;&lt;/div&gt;&lt;div&gt;Ver relatórios financeiros&lt;/div&gt;&lt;/blockquote&gt;" style="text;html=1;strokeColor=none;fillColor=none;spacing=5;spacingTop=-20;whiteSpace=wrap;overflow=hidden;rounded=0;" vertex="1" parent="1">
                    <mxGeometry x="60" y="60" width="720" height="320" as="geometry"/>
                </mxCell>
            </root>
        </mxGraphModel>
    </diagram>
    <diagram id="Rkvm90gALpOC5CDuB2n9" name="Page-2">
        <mxGraphModel dx="678" dy="860" grid="1" gridSize="10" guides="1" tooltips="1" connect="1" arrows="1" fold="1" page="1" pageScale="1" pageWidth="827" pageHeight="1169" math="0" shadow="0">
            <root>
                <mxCell id="kYWxVrtdcbP6wO9Gq0Ut-0"/>
                <mxCell id="kYWxVrtdcbP6wO9Gq0Ut-1" parent="kYWxVrtdcbP6wO9Gq0Ut-0"/>
                <mxCell id="kYWxVrtdcbP6wO9Gq0Ut-2" value="Despesas" style="rounded=1;whiteSpace=wrap;html=1;fillColor=#009900;" vertex="1" parent="kYWxVrtdcbP6wO9Gq0Ut-1">
                    <mxGeometry x="460" y="240" width="120" height="60" as="geometry"/>
                </mxCell>
                <mxCell id="kYWxVrtdcbP6wO9Gq0Ut-4" value="Condominio" style="rounded=1;whiteSpace=wrap;html=1;fillColor=#009900;" vertex="1" parent="kYWxVrtdcbP6wO9Gq0Ut-1">
                    <mxGeometry x="460" y="360" width="120" height="60" as="geometry"/>
                </mxCell>
                <mxCell id="_IyUz_fhrYJ5uolYfSi--0" value="Plano de contas" style="rounded=1;whiteSpace=wrap;html=1;fillColor=#999900;" vertex="1" parent="kYWxVrtdcbP6wO9Gq0Ut-1">
                    <mxGeometry x="290" y="360" width="120" height="60" as="geometry"/>
                </mxCell>
                <mxCell id="_IyUz_fhrYJ5uolYfSi--1" value="Recebimentos" style="rounded=1;whiteSpace=wrap;html=1;fillColor=#009900;" vertex="1" parent="kYWxVrtdcbP6wO9Gq0Ut-1">
                    <mxGeometry x="294" y="240" width="120" height="60" as="geometry"/>
                </mxCell>
                <mxCell id="uR2Ya4WXkTmW62fRxpwx-0" value="Relatórios" style="rounded=1;whiteSpace=wrap;html=1;fillColor=#999900;" vertex="1" parent="kYWxVrtdcbP6wO9Gq0Ut-1">
                    <mxGeometry x="460" y="470" width="120" height="60" as="geometry"/>
                </mxCell>
                <mxCell id="uR2Ya4WXkTmW62fRxpwx-1" value="Autenticação" style="rounded=1;whiteSpace=wrap;html=1;fillColor=#990000;" vertex="1" parent="kYWxVrtdcbP6wO9Gq0Ut-1">
                    <mxGeometry x="280" y="470" width="120" height="60" as="geometry"/>
                </mxCell>
            </root>
        </mxGraphModel>
    </diagram>
</mxfile>